#Unknown ASF file
:ROOT_YZX
:FOOT_3DOF
:FULLY-SPECIFIED
:DEGREES
820
root -3.82315 17.5879 45.6966 3.73959 161.023 -8.03569
lfemur -31.4568 8.21759 -11.0302
ltibia 27.0002
lfoot -12.2748 0 10.1564
ltoes -14.9638
rfemur 4.26685 -6.81327 31.1109
rtibia 16.7363
rfoot -19.6951 0 -21.6087
rtoes -14.6722
lowerback 11.145 2.90339 5.42376
upperback 0.724018 5.10467 4.25961
thorax -5.42267 2.56406 0.620392
lowerneck -21.2641 0.191697 -11.4041
upperneck 19.8537 3.09227 4.44724
head 9.55666 1.17391 3.8822
lclavicle -2.22639e-014 -3.57812e-014
lhumerus -39.4311 16.2924 80.5563
lradius 25.7293
lwrist -3.8444
lhand -11.2483 31.9774
lfingers 7.12502
lthumb 14.7813 61.4303
rclavicle -2.22639e-014 -3.57812e-014
rhumerus -17.6945 -4.28751 -74.1108
rradius 33.4495
rwrist -1.76767
rhand -24.1379 11.6674
rfingers 7.12502
rthumb 2.34421 -18.2995
821
root -3.77393 17.5823 45.3603 4.19793 162.377 -8.05493
lfemur -32.3245 9.34933 -11.9724
ltibia 28.6806
lfoot -9.32884 0 9.81991
ltoes -16.2367
rfemur 5.06968 -5.9443 31.2426
rtibia 16.8061
rfoot -19.4389 0 -22.6963
rtoes -16.9402
lowerback 11.5378 2.98436 5.13184
upperback 0.366404 5.19945 4.10717
thorax -6.0294 2.58656 0.572912
lowerneck -20.6061 -0.201377 -11.392
upperneck 18.343 2.51352 3.9592
head 8.97338 0.884557 3.57478
lclavicle -2.48481e-015 3.18055e-014
lhumerus -40.534 17.7246 78.5397
lradius 23.4672
lwrist -6.53757
lhand -11.47 29.7084
lfingers 7.12502
lthumb 14.5676 59.1768
rclavicle -2.48481e-015 3.18055e-014
rhumerus -19.2156 -3.5364 -74.7577
rradius 36.3493
rwrist -3.21347
rhand -24.5854 11.9486
rfingers 7.12502
rthumb 1.91199 -18.0226
822
root -3.74182 17.604 44.9481 4.47286 164.364 -7.47419
lfemur -32.3142 8.55179 -12.9553
ltibia 29.7723
lfoot -8.77205 0 7.73705
ltoes -15.5667
rfemur 5.82471 -6.2039 30.4331
rtibia 17.6958
rfoot -18.8993 0 -23.4943
rtoes -19.115
lowerback 11.8285 2.89319 4.56434
upperback -0.094414 4.99596 3.83944
thorax -6.70793 2.46209 0.609669
lowerneck -20.9629 -0.500226 -12.1801
upperneck 18.8549 2.2358 4.72942
head 9.21764 0.771929 3.95775
lclavicle 5.26779e-015 1.74931e-014
lhumerus -41.8101 18.6191 77.1582
lradius 22.7606
lwrist -7.37441
lhand -10.7403 32.7553
lfingers 7.12502
lthumb 15.2706 62.1716
rclavicle 5.26779e-015 1.74931e-014
rhumerus -21.9419 -3.4106 -75.298
rradius 38.8677
rwrist -3.46746
rhand -24.4372 12.6236
rfingers 7.12502
rthumb 2.05514 -17.3463
823
root -3.74143 17.6357 44.4541 4.54078 167.026 -7.25407
lfemur -31.5252 7.37308 -13.7153
ltibia 30.9011
lfoot -8.70595 0 3.30812
ltoes -16.2568
rfemur 6.73832 -8.00142 29.4101
rtibia 19.3445
rfoot -17.1374 0 -22.6885
rtoes -22.0149
lowerback 11.0729 2.81989 5.06956
upperback 0.367505 4.84694 3.44858
thorax -5.71637 2.39497 0.00326347
lowerneck -22.1208 -1.48684 -12.4183
upperneck 18.3224 1.02633 4.88095
head 9.3474 0.208776 3.88668
lclavicle -1.91827e-014 -9.93923e-015
lhumerus -41.5986 19.8981 75.7155
lradius 21.7263
lwrist -9.10559
lhand -11.1687 30.5315
lfingers 7.12502
lthumb 14.8579 59.9787
rclavicle -1.91827e-014 -9.93923e-015
rhumerus -23.9905 -4.46679 -75.7433
rradius 41.1244
rwrist -3.6868
rhand -23.3989 10.6305
rfingers 7.12502
rthumb 3.05788 -19.3274
824
root -3.76113 17.6826 43.9403 4.23319 169.003 -6.77841
lfemur -29.7963 5.72148 -14.5037
ltibia 31.2342
lfoot -8.36043 0 1.32408
ltoes -16.0561
rfemur 7.10639 -8.38374 28.1112
rtibia 22.5498
rfoot -14.3259 0 -22.0599
rtoes -23.6218
lowerback 10.9997 2.82717 4.78279
upperback 0.0984607 4.81055 3.38103
thorax -5.97752 2.36812 0.0934299
lowerneck -21.4639 -1.79352 -12.7936
upperneck 18.5185 0.625015 5.03488
head 9.33964 0.0110872 3.94717
lclavicle 2.5842e-014 7.55382e-015
lhumerus -42.9448 20.3385 75.1828
lradius 21.9306
lwrist -8.52197
lhand -11.4028 29.6613
lfingers 7.12502
lthumb 14.6325 59.1251
rclavicle 2.5842e-014 7.55382e-015
rhumerus -27.4923 -4.91042 -75.6787
rradius 42.0764
rwrist -4.07409
rhand -22.4199 12.1444
rfingers 7.12502
rthumb 4.00331 -17.7978
825
root -3.82759 17.7342 43.2732 2.61156 168.114 -6.18556
lfemur -25.7828 5.44185 -15.538
ltibia 31.437
lfoot -9.1143 0 2.75681
ltoes -12.9554
rfemur 8.19187 -7.45118 25.4955
rtibia 27.0843
rfoot -9.86846 0 -19.9515
rtoes -24.8934
lowerback 10.0382 3.67285 4.66005
upperback 0.847409 5.78939 3.12343
thorax -4.60473 2.89236 -0.151598
lowerneck -21.1833 -2.36111 -13.2077
upperneck 18.5905 -0.127374 5.34332
head 9.39136 -0.337111 4.02117
lclavicle -4.50247e-014 4.69132e-014
lhumerus -43.1365 19.4233 75.9687
lradius 22.5573
lwrist -6.47601
lhand -10.5791 30.1633
lfingers 7.12502
lthumb 15.426 59.5677
rclavicle -4.50247e-014 4.69132e-014
rhumerus -29.9281 -5.46933 -75.9071
rradius 41.6039
rwrist -4.13007
rhand -22.713 11.5942
rfingers 7.12502
rthumb 3.72024 -18.353
826
root -3.82612 17.7565 42.8401 2.53807 172.54 -5.23059
lfemur -24.6274 5.02807 -17.4227
ltibia 31.5617
lfoot -8.95869 0 -0.701675
ltoes -12.1704
rfemur 5.61902 -10.6669 23.9586
rtibia 34.1344
rfoot -4.62395 0 -19.634
rtoes -18.6729
lowerback 10.4529 2.8594 3.43314
upperback 0.297973 4.59414 3.1336
thorax -5.54406 2.29528 0.653609
lowerneck -20.2023 -2.49515 -13.6832
upperneck 18.9183 -0.751494 5.71971
head 9.38976 -0.775434 4.12706
lclavicle -3.50855e-014 1.23246e-014
lhumerus -43.8603 17.9479 77.2281
lradius 24.2383
lwrist -4.29245
lhand -10.1993 30.5515
lfingers 7.12502
lthumb 15.7917 59.9274
rclavicle -3.50855e-014 1.23246e-014
rhumerus -32.4829 -5.95278 -76.019
rradius 39.9687
rwrist -3.35208
rhand -22.8208 11.3898
rfingers 7.12502
rthumb 3.61613 -18.5593
